<svg xmlns="http://www.w3.org/2000/svg" viewBox="0 0 355.000000 350.000000" preserveAspectRatio="xMidYMid meet">
    <g transform="translate(-120.000000,470.000000) scale(0.100000,-0.100000)" fill="#fff" stroke="none">
        <path d="M2845 4644 c-333 -48 -550 -135 -790 -314 -86 -65 -223 -198 -294 -287 l-34 -43 -139 0 c-76 0 -138 -2 -138 -5 0 -3 31 -60 69 -127 l70 -121 -21 -51 c-135 -333 -162 -675 -78 -1001 155 -600 632 -1043 1245 -1154 66 -13 127 -26 135 -30 8 -4 39 -51 69 -105 30 -53 57 -96 60 -96 3 0 33 47 66 105 l60 104 45 7 c362 50 662 191 906 427 272 262 436 598 474 972 24 228 -2 435 -86 689 l-47 142 66 116 c37 64 67 119 67 122 0 3 -63 6 -139 6 l-139 0 -53 63 c-255 302 -547 480 -914 557 -97 20 -383 35 -460 24z m447 -134 c303 -64 582 -224 783 -449 30 -34 55 -66 55 -71 0 -6 -146 -10 -387 -10 -212 0 -383 3 -379 7 4 4 59 26 122 48 64 22 116 45 116 50 1 16 -129 101 -227 149 -200 98 -346 131 -580 131 -189 0 -255 -10 -413 -61 -138 -45 -266 -112 -392 -207 -95 -72 -101 -75 -60 -32 253 267 539 416 890 465 104 14 361 4 472 -20z m-1152 -625 c0 -2 -22 -52 -50 -111 -27 -59 -50 -111 -50 -115 0 -10 657 -1148 671 -1163 5 -6 9 280 9 692 l0 702 115 0 115 0 0 -1132 c0 -648 -4 -1128 -9 -1122 -5 5 -188 320 -406 699 -219 380 -510 883 -647 1118 -136 236 -248 431 -248 433 0 2 113 4 250 4 138 0 250 -2 250 -5z m1140 -697 c0 -454 3 -699 10 -692 5 5 159 268 341 584 377 653 342 564 281 728 l-31 82 239 0 c132 0 240 -2 240 -4 0 -7 -1291 -2241 -1301 -2250 -5 -6 -9 409 -9 1122 l0 1132 115 0 115 0 0 -702z m-1426 107 c87 -154 168 -296 179 -315 25 -42 24 -42 -102 68 -46 39 -87 72 -91 72 -24 0 -27 -286 -4 -421 76 -449 395 -844 811 -1005 40 -15 71 -29 69 -32 -3 -2 -40 6 -83 18 -263 71 -461 186 -654 379 -212 211 -336 443 -401 745 -29 135 -31 397 -4 531 15 78 69 265 83 288 6 11 6 11 197 -328z m2550 135 c85 -345 49 -677 -109 -995 -172 -346 -471 -608 -835 -729 -116 -38 -260 -69 -260 -55 0 11 381 661 385 657 2 -2 -8 -59 -21 -127 -13 -68 -22 -126 -19 -129 10 -11 232 108 310 166 211 156 385 393 465 632 72 214 88 472 44 690 -4 19 -3 21 4 10 6 -8 22 -62 36 -120z"></path>
    </g>
</svg>