<svg xmlns="http://www.w3.org/2000/svg" width="1600.003" height="1600.003" fill-rule="evenodd" clip-rule="evenodd" image-rendering="optimizeQuality" shape-rendering="geometricPrecision" text-rendering="geometricPrecision" viewBox="0 0 16666.66 16666.66" id="international-crowdfunding-money-raising-internet-platforms-business-startup-nonprofit-charity-symbols-flat-icons-collection-illustration"><rect width="16666.66" height="16666.66" fill="none"></rect><path fill="#e7a192" fill-rule="nonzero" d="M10325.87 6260.72c68.68,-38.04 133.96,-75.31 173.97,-141.18 18.88,-30.96 35.26,-61.57 64.52,-82.63 30.02,-21.55 56.81,-57.43 82.67,-87.52 24.36,-28.28 50.04,-65.66 89.99,-77.91 47.86,-14.51 33.67,47.54 18.22,87.59 -16.66,43.56 -138.71,123.52 -122.93,170.3 15.79,46.78 158.32,-59.86 186.37,-81.45 66.21,-51.16 58.51,-113.35 89.85,-182.24 18.36,-40.32 38.94,-53.2 64.28,-8.85 18.98,33.04 2.22,74.44 -9.54,107.27 -23.74,66.94 -65.14,137.57 -119.87,185.35 47.02,-32.1 102.72,-110.74 129.55,-161.13 18.6,-34.91 71.59,-197.12 129.03,-172.79 115.08,48.97 -109.32,362.31 -171.16,395.84 58.51,-39.77 98.91,-97.31 140.8,-153.88 24.61,-33.18 79.33,-114.11 105.64,-44.84 38.94,102.13 -151.41,221.38 -226.96,289.81 63.79,-27.83 102.97,-68.96 161.37,-115.19 69.03,-54.62 85.06,15.06 24.22,83.22 -25.58,28.77 -86.17,77.25 -99.67,87.56 -141.53,108.07 -238.11,129.41 -408.65,145.79 -61.22,5.9 -167.14,81.17 -210.34,50.08 -83.61,-60.25 -76.39,-207.26 -91.34,-293.22z"></path><path fill="#33a5ad" fill-rule="nonzero" d="M10411.1 6087.61c0,0 -1314.43,366.27 -1447.38,357.63 -132.95,-8.85 -440.99,-1165.34 -564.26,-1736.19 -11.52,-53.13 -186.46,-56.29 -384.31,-223.22 -81.8,-68.89 -323.69,62.96 -404.62,0 -155.27,163.94 -198.23,401.22 -103.94,609.48 299.46,661.61 556.9,1931.47 1246.2,1944.66 911.37,17.42 1835.83,-458.62 1835.83,-458.62l-177.51 -493.74z"></path><path fill="#e7a192" fill-rule="nonzero" d="M10694.01 6245.65c0,0 -52.65,-89.74 -61.7,-116.3 -15.79,-46.78 106.27,-126.74 122.93,-170.3 15.44,-40.05 29.64,-102.1 -18.22,-87.59 -39.94,12.25 -65.63,49.63 -89.99,77.91 -25.85,30.09 -52.65,65.97 -82.67,87.52 -29.26,21.07 -45.64,51.68 -64.52,82.63 -15.06,24.74 -34.53,44.66 -55.46,62.95 49.45,44.42 249.63,63.16 249.63,63.16z"></path><polygon fill="#ffce72" fill-rule="nonzero" points="4896.61 14919.88 10695.61 14919.88 10695.61 13920.98 4896.61 13920.98"></polygon><polygon fill="#faaa41" fill-rule="nonzero" points="5220.96 14919.88 5512.96 14919.88 5512.96 13920.98 5220.96 13920.98"></polygon><polygon fill="#faaa41" fill-rule="nonzero" points="5833.94 14919.88 6125.81 14919.88 6125.81 13920.98 5833.94 13920.98"></polygon><polygon fill="#faaa41" fill-rule="nonzero" points="6446.96 14919.88 6738.83 14919.88 6738.83 13920.98 6446.96 13920.98"></polygon><polygon fill="#faaa41" fill-rule="nonzero" points="7059.94 14919.88 7351.81 14919.88 7351.81 13920.98 7059.94 13920.98"></polygon><polygon fill="#faaa41" fill-rule="nonzero" points="7672.96 14919.88 7964.82 14919.88 7964.82 13920.98 7672.96 13920.98"></polygon><polygon fill="#faaa41" fill-rule="nonzero" points="8285.95 14919.88 8577.84 14919.88 8577.84 13920.98 8285.95 13920.98"></polygon><polygon fill="#faaa41" fill-rule="nonzero" points="8898.86 14919.88 9190.86 14919.88 9190.86 13920.98 8898.86 13920.98"></polygon><polygon fill="#faaa41" fill-rule="nonzero" points="9511.84 14919.88 9803.71 14919.88 9803.71 13920.98 9511.84 13920.98"></polygon><polygon fill="#faaa41" fill-rule="nonzero" points="10124.86 14919.88 10416.73 14919.88 10416.73 13920.98 10124.86 13920.98"></polygon><polygon fill="#ffce72" fill-rule="nonzero" points="4160.46 13920.98 9959.39 13920.98 9959.39 12921.98 4160.46 12921.98"></polygon><polygon fill="#faaa41" fill-rule="nonzero" points="4484.77 13920.98 4776.64 13920.98 4776.64 12921.98 4484.77 12921.98"></polygon><polygon fill="#faaa41" fill-rule="nonzero" points="5097.79 13920.98 5389.66 13920.98 5389.66 12921.98 5097.79 12921.98"></polygon><polygon fill="#faaa41" fill-rule="nonzero" points="5710.77 13920.98 6002.64 13920.98 6002.64 12921.98 5710.77 12921.98"></polygon><polygon fill="#faaa41" fill-rule="nonzero" points="6323.79 13920.98 6615.66 13920.98 6615.66 12921.98 6323.79 12921.98"></polygon><polygon fill="#faaa41" fill-rule="nonzero" points="6936.68 13920.98 7228.54 13920.98 7228.54 12921.98 6936.68 12921.98"></polygon><polygon fill="#faaa41" fill-rule="nonzero" points="7549.66 13920.98 7841.56 13920.98 7841.56 12921.98 7549.66 12921.98"></polygon><polygon fill="#faaa41" fill-rule="nonzero" points="8162.68 13920.98 8454.54 13920.98 8454.54 12921.98 8162.68 12921.98"></polygon><polygon fill="#faaa41" fill-rule="nonzero" points="8775.69 13920.98 9067.56 13920.98 9067.56 12921.98 8775.69 12921.98"></polygon><polygon fill="#faaa41" fill-rule="nonzero" points="9388.68 13920.98 9680.54 13920.98 9680.54 12921.98 9388.68 12921.98"></polygon><polygon fill="#ffce72" fill-rule="nonzero" points="5156.16 12921.98 10955.17 12921.98 10955.17 11923.08 5156.16 11923.08"></polygon><polygon fill="#faaa41" fill-rule="nonzero" points="5480.48 12921.98 5772.38 12921.98 5772.38 11923.08 5480.48 11923.08"></polygon><polygon fill="#faaa41" fill-rule="nonzero" points="6093.49 12921.98 6385.36 12921.98 6385.36 11923.08 6093.49 11923.08"></polygon><polygon fill="#faaa41" fill-rule="nonzero" points="6706.38 12921.98 6998.34 12921.98 6998.34 11923.08 6706.38 11923.08"></polygon><polygon fill="#faaa41" fill-rule="nonzero" points="7319.39 12921.98 7611.26 12921.98 7611.26 11923.08 7319.39 11923.08"></polygon><polygon fill="#faaa41" fill-rule="nonzero" points="7932.38 12921.98 8224.24 12921.98 8224.24 11923.08 7932.38 11923.08"></polygon><polygon fill="#faaa41" fill-rule="nonzero" points="8545.4 12921.98 8837.26 12921.98 8837.26 11923.08 8545.4 11923.08"></polygon><polygon fill="#faaa41" fill-rule="nonzero" points="9158.38 12921.98 9450.28 12921.98 9450.28 11923.08 9158.38 11923.08"></polygon><polygon fill="#faaa41" fill-rule="nonzero" points="9771.4 12921.98 10063.26 12921.98 10063.26 11923.08 9771.4 11923.08"></polygon><polygon fill="#faaa41" fill-rule="nonzero" points="10384.28 12921.98 10676.25 12921.98 10676.25 11923.08 10384.28 11923.08"></polygon><polygon fill="#ffce72" fill-rule="nonzero" points="4650.18 11923.08 10449.11 11923.08 10449.11 10924.19 4650.18 10924.19"></polygon><polygon fill="#faaa41" fill-rule="nonzero" points="4974.49 11923.08 5266.35 11923.08 5266.35 10924.19 4974.49 10924.19"></polygon><polygon fill="#faaa41" fill-rule="nonzero" points="5587.51 11923.08 5879.37 11923.08 5879.37 10924.19 5587.51 10924.19"></polygon><polygon fill="#faaa41" fill-rule="nonzero" points="6200.49 11923.08 6492.35 11923.08 6492.35 10924.19 6200.49 10924.19"></polygon><polygon fill="#faaa41" fill-rule="nonzero" points="6813.51 11923.08 7105.37 11923.08 7105.37 10924.19 6813.51 10924.19"></polygon><polygon fill="#faaa41" fill-rule="nonzero" points="7426.39 11923.08 7718.39 11923.08 7718.39 10924.19 7426.39 10924.19"></polygon><polygon fill="#faaa41" fill-rule="nonzero" points="8039.41 11923.08 8331.41 11923.08 8331.41 10924.19 8039.41 10924.19"></polygon><polygon fill="#faaa41" fill-rule="nonzero" points="8652.39 11923.08 8944.25 11923.08 8944.25 10924.19 8652.39 10924.19"></polygon><polygon fill="#faaa41" fill-rule="nonzero" points="9265.41 11923.08 9557.27 11923.08 9557.27 10924.19 9265.41 10924.19"></polygon><polygon fill="#faaa41" fill-rule="nonzero" points="9878.39 11923.08 10170.26 11923.08 10170.26 10924.19 9878.39 10924.19"></polygon><polygon fill="#ffce72" fill-rule="nonzero" points="3913.88 10924.19 9712.99 10924.19 9712.99 9925.29 3913.88 9925.29"></polygon><polygon fill="#faaa41" fill-rule="nonzero" points="4238.34 10924.19 4530.2 10924.19 4530.2 9925.29 4238.34 9925.29"></polygon><polygon fill="#faaa41" fill-rule="nonzero" points="4851.22 10924.19 5143.22 10924.19 5143.22 9925.29 4851.22 9925.29"></polygon><polygon fill="#faaa41" fill-rule="nonzero" points="5464.2 10924.19 5756.07 10924.19 5756.07 9925.29 5464.2 9925.29"></polygon><polygon fill="#faaa41" fill-rule="nonzero" points="6077.22 10924.19 6369.09 10924.19 6369.09 9925.29 6077.22 9925.29"></polygon><polygon fill="#faaa41" fill-rule="nonzero" points="6690.2 10924.19 6982.1 10924.19 6982.1 9925.29 6690.2 9925.29"></polygon><polygon fill="#faaa41" fill-rule="nonzero" points="7303.22 10924.19 7595.08 10924.19 7595.08 9925.29 7303.22 9925.29"></polygon><polygon fill="#faaa41" fill-rule="nonzero" points="7916.24 10924.19 8208.1 10924.19 8208.1 9925.29 7916.24 9925.29"></polygon><polygon fill="#faaa41" fill-rule="nonzero" points="8529.12 10924.19 8821.12 10924.19 8821.12 9925.29 8529.12 9925.29"></polygon><polygon fill="#faaa41" fill-rule="nonzero" points="9142.1 10924.19 9434.14 10924.19 9434.14 9925.29 9142.1 9925.29"></polygon><polygon fill="#ffce72" fill-rule="nonzero" points="4695.6 9925.29 10494.6 9925.29 10494.6 8926.25 4695.6 8926.25"></polygon><polygon fill="#faaa41" fill-rule="nonzero" points="5019.92 9925.29 5311.78 9925.29 5311.78 8926.25 5019.92 8926.25"></polygon><polygon fill="#faaa41" fill-rule="nonzero" points="5632.9 9925.29 5924.8 9925.29 5924.8 8926.25 5632.9 8926.25"></polygon><polygon fill="#faaa41" fill-rule="nonzero" points="6245.92 9925.29 6537.78 9925.29 6537.78 8926.25 6245.92 8926.25"></polygon><polygon fill="#faaa41" fill-rule="nonzero" points="6858.8 9925.29 7150.8 9925.29 7150.8 8926.25 6858.8 8926.25"></polygon><polygon fill="#faaa41" fill-rule="nonzero" points="7471.82 9925.29 7763.68 9925.29 7763.68 8926.25 7471.82 8926.25"></polygon><polygon fill="#faaa41" fill-rule="nonzero" points="8084.8 9925.29 8376.66 9925.29 8376.66 8926.25 8084.8 8926.25"></polygon><polygon fill="#faaa41" fill-rule="nonzero" points="8697.82 9925.29 8989.68 9925.29 8989.68 8926.25 8697.82 8926.25"></polygon><polygon fill="#faaa41" fill-rule="nonzero" points="9310.8 9925.29 9602.7 9925.29 9602.7 8926.25 9310.8 8926.25"></polygon><polygon fill="#faaa41" fill-rule="nonzero" points="9923.82 9925.29 10215.68 9925.29 10215.68 8926.25 9923.82 8926.25"></polygon><path fill="#2c2a43" fill-rule="nonzero" d="M11030.23 10270.64c0 0 121.92 565.99 235.4 619.02 113.38 53 1303.15-239.35 1371.83-373.66 68.68-134.17-28.39-274.48-282.56-264.83-228.32 8.71-378.31 93.15-563.53 65.63-162.48-24.22-321.4-332.88-321.4-332.88l-439.74 286.73zM9009.4 11557.23c0 0-304.98 492.21-260.04 608.99 44.8 116.92 1104.33 732.13 1246.96 683.02 142.6-48.97 170.16-217.29-19.61-386.75-170.54-152.18-337.05-195.42-451.26-343.75-100.3-130.28-.48-462.81-.48-462.81l-515.57-98.7z"></path><path fill="#268ccb" fill-rule="nonzero" d="M7228.54 7382.53c0,0 480.03,249.67 703.84,220.48 223.81,-29.12 2138.59,121.61 2362.4,306.44 223.81,184.91 -692.08,3877.35 -692.08,3877.35l-758.95 -126.46c0,0 272.05,-2699.48 226.62,-2718.92 -45.29,-19.47 -1191.47,-15.17 -3145.57,-15.17 -476.87,0 -1008.72,-1002.12 -405.38,-1702.77l1709.12 159.05z"></path><path fill="#5d94c2" fill-rule="nonzero" d="M9968.38 10215.28c20.93,-95.72 41.99,-192.68 62.68,-289.99l1.74 0c-21.31,96.93 -42.96,193.93 -64.41,289.99zm270.45 -1289.03l-11.52 0c20.34,-116.95 38.35,-227.83 53.52,-330.94 4.55,2.57 9.3,4.93 13.95,7.22 -16.28,102.62 -35.12,211.11 -55.94,323.72z"></path><path fill="#5f838e" fill-rule="nonzero" d="M10215.68 9048.83l0 -56.74c3.92,-22.04 7.85,-44.04 11.63,-65.83l11.52 0c-7.46,40.4 -15.17,81.14 -23.15,122.58z"></path><path fill="#5d94c2" fill-rule="nonzero" d="M9773.34 7763.8c-576.13,-97.35 -1444.88,-164.43 -1750.83,-164.43 -40.67,0 -71.39,1.21 -90.13,3.64 33.07,-4.27 103.59,-6.45 200.66,-6.45 362.91,0 1095.38,30.61 1618.41,94.88 6.98,24.08 14.33,48.2 21.9,72.36zm-1880.25 -158.46c-236.06,0 -664.55,-222.8 -664.55,-222.8l-110.19 -10.27 0 0 110.32 10.27c0,0 428.36,222.8 664.42,222.8l0 0zm0.24 0c13.71,0 26.79,-0.7 39.04,-2.33 -12.25,1.63 -25.33,2.33 -39.04,2.33z"></path><path fill="#5c7776" fill-rule="nonzero" d="M10032.79 9925.29l-1.74 0c67.95,-319.8 132.85,-642.41 184.63,-933.2l0 56.74c-53.37,277.88 -117.16,577.48 -182.89,876.46z"></path><path fill="#2674b9" fill-rule="nonzero" d="M9968.38 10215.28c-152.91,-551.77 -389.8,-1069.63 -611.04,-1563.64 -184.14,-411 -593.06,-627.21 -1005.15,-736.43 -238.38,-63.13 -492.04,-76.76 -733.48,-130.14 -201.39,-44.56 -362.87,-216.07 -500.37,-412.81l110.19 10.27c0,0 428.5,222.8 664.55,222.8l0 0c0.1,0 0.24,0 0.24,0 13.71,0 26.79,-0.7 39.04,-2.33l0 0c18.74,-2.43 49.46,-3.64 90.13,-3.64 305.95,0 1174.71,67.08 1750.83,164.43 48.48,154.74 109.11,308.97 191.61,445.39 76.9,126.95 177.65,310.68 315.88,386.12 -15.17,103.11 -33.18,213.99 -53.52,330.94 -3.78,21.8 -7.7,43.8 -11.63,65.83 -51.78,290.79 -116.67,613.4 -184.63,933.2 -20.69,97.31 -41.75,194.28 -62.68,289.99z"></path><path fill="#268ccb" fill-rule="nonzero" d="M7426.39 6970.52c0,0 2280.11,136.28 2497.43,350.31 217.32,214.13 1684.52,2739.22 1684.52,2739.22l-604.55 435.99c0,0 -1202.02,-1772.28 -1781.13,-2463.14 -131.46,-156.87 -313.52,-261.39 -515.39,-295.3 -246.96,-41.54 -607.26,-95.75 -876.98,-110.19 -452.51,-24.4 -657.58,-250.15 -657.58,-250.15l253.69 -406.74z"></path><path fill="#fbcdc2" fill-rule="nonzero" d="M8012.34 3449.35c-71.63,-40.36 -131.6,-93.87 -188.06,-151.56 -55.7,219.4 -187.68,620.86 -440.02,808.89 0,0 447.61,249.42 843.31,208.99 0,0 15.79,-528.41 125.49,-775.37 -118.65,-6.35 -235.92,-31.41 -340.73,-90.96z"></path><path fill="#e7a192" fill-rule="nonzero" d="M7707.49 4059.21c100.64,-222.35 350.03,-338.58 584.11,-313.94 16.28,-76.52 36.33,-148.26 61.46,-204.96 -118.65,-6.35 -235.92,-31.41 -340.73,-90.96 -71.63,-40.36 -131.6,-93.87 -188.06,-151.56 -55.7,219.4 -187.68,620.86 -440.02,808.89 0,0 109.84,61.08 268.51,117.89 10.27,-55.18 29.36,-109.32 54.73,-165.37z"></path><path fill="#fbcdc2" fill-rule="nonzero" d="M8395.79 2088.69c0,0 585.32,36.61 710.81,202.99 125.49,166.51 129.55,539.93 28.04,718.55 -101.51,178.62 31.72,482.35 11.04,552.98 -16.56,56.81 -201.67,31.23 -215.13,50.08 -13.57,18.98 -156.2,360.68 -407.57,331.18 -353.57,-41.75 -684.61,-466.11 -757.7,-717.79 -73.09,-251.61 94.74,-1209.72 630.51,-1137.99z"></path><path fill="#2c2a43" fill-rule="nonzero" d="M9360.05 2484.5c-17.04,-38.18 -70.66,-110.05 -74.2,-152.18 -3.19,-35.26 3.06,-71.63 -4.89,-105.54 -25.47,-107.24 -15.44,-174.56 -225.41,-341.07 -182.54,-144.58 -476,-171.54 -691.24,-102.97 -79.33,25.23 -155.09,63.89 -219.26,117.3 -19.22,16.03 -76.63,58.27 -76.28,82.98 0.48,31.23 70.66,79.33 89.36,102.62 33.46,41.5 54.38,94.01 81.07,140.31 163.81,285.13 456.78,635.51 822.35,467.68 48.1,-22.17 97.07,-46.89 141.91,-75.31 6.97,124.76 -4.55,261.26 -61.11,374.63 0,0 110.08,-31.44 170.92,-126.81 102.97,-161.37 87.28,-290.3 46.78,-381.64z"></path><path fill="#2c2a43" fill-rule="nonzero" d="M8261.82 2043.99c-50.04,-58.37 -172.96,-92.8 -244.11,-103.8 -148.5,-22.9 -261.15,48.97 -336.43,172.86 -45.57,74.93 -88.63,153.15 -118.76,235.44 -53.52,145.79 -81.42,239.35 -81.42,394.59 0,146.38 18.22,298.07 84.96,430.33 60.25,119.35 204.58,285.65 309.15,283.91 40.64,-0.62 188.17,-233.21 203.96,-302.38 15.06,-66.53 -15.55,-79.23 -54.24,-126.26 -65.24,-79.37 -122.54,-208.12 -22.87,-285.61 142.11,-110.43 278.02,17.49 259.76,238.73 0,0 20.34,136.01 62.96,131.95 42.58,-4.17 420.17,-506.82 -62.96,-1069.76z"></path><path fill="#e7a192" fill-rule="nonzero" d="M8052.73 2786.04c0,0 102.34,-3.4 139.2,100.02 34.29,96.72 -40.15,202.64 -84.71,135.07 -44.56,-67.64 -5.38,-96.37 -2.33,-136.67 3.19,-40.15 -29.5,-85.83 -52.16,-98.43z"></path><path fill="#3fc0c6" fill-rule="nonzero" d="M5143.18 7433.93c0,0 681.07,733.41 2474.56,227.52 0,0 60.73,-447.65 250.98,-888.71 190.11,-441.13 498.87,-1307.7 559.85,-1777.35 68.82,-530.22 -194.41,-803.48 -194.41,-803.48 0,0 -339.13,250.84 -750.97,-175.81 0,0 -887.01,103.56 -1405.98,1037.7 -518.87,934 -934.04,2380.13 -934.04,2380.13z"></path><path fill="#33a5ad" fill-rule="nonzero" d="M7607.72 4776.86c-6,-22 -10.9,-45.08 -16.07,-67.81 -429.71,209.44 -375.47,624.5 -272.26,1249.63 79.44,480.76 309.84,1240.2 355.76,1410.53 39.08,-165.54 100.89,-381.5 193.58,-596.46 87.77,-203.65 200.66,-498.11 303,-802.23 -156.2,-228.28 -260.67,-473.65 -354.78,-740.69 -55.35,-156.66 -164.92,-291.1 -209.23,-452.96z"></path><path fill="#e5e6e5" fill-rule="nonzero" d="M10540 5820.31l1507.59 -898.84c0,0 549.61,538.79 705.19,1273.34l-1711.17 801.81c0,0 -266.91,-628.18 -501.62,-1176.31z"></path><path fill="#a8aaab" fill-rule="nonzero" d="M11705.79 6383.5c-350.9,-104.08 -720.88,-380.01 -899.75,-721.82l-266.04 158.63c234.7,548.12 501.62,1176.31 501.62,1176.31l1249.25 -585.36c-189.14,32 -375.36,34.53 -585.08,-27.76z"></path><polygon fill="#f1666e" fill-rule="nonzero" points="10807.64 5908.99 11451.86 5839.68 11471.71 5837.6 11481.73 5852.9 11572.21 5990.85 11547.12 5977.28 12028.64 5977.28 12033.64 6001.05 12072.58 6180.93 12038.67 6157.61 12370.45 6106.07 12379.64 6165.45 12047.83 6216.88 12019.93 6221.25 12013.93 6193.63 11974.99 6013.65 12004.38 6037.29 11530.84 6037.29 11521.89 6023.82 11431.55 5885.84 11461.29 5899.03 10826.97 6032.01"></polygon><path fill="#f1666e" fill-rule="nonzero" d="M12337.75 6141.61l-57.05 -67.81 2.32 -2.12 129.41 29.5c44.07,2.81 88.04,5.52 131.88,8.33 -41.02,15.93 -82.04,31.86 -123.06,47.89l-114.46 67.33 -2.81 -0.87 33.77 -82.25z"></path><path fill="#33a5ad" fill-rule="nonzero" d="M12151.18 5313.87c-6.98,-12.01 -23.63,-16.17 -36.85,-9.09l-119.39 61.67 -56.05 -102.31c-6.39,-11.77 -23.15,-15.2 -37.34,-8.19 -14.44,7.08 -21.2,22.77 -14.82,34.63l54.48 103.56 -130.28 67.36c-16.38,8.43 -24.61,26.58 -18.6,40.5 4.55,10.41 15.79,15.69 27.8,14.19l12.98 -4.27 132.81 -70.76 60.63 114.98c5.38,10.27 16.38,15.17 27.9,13.57l13.08 -4.79c14.96,-9.16 20.96,-27.9 13.22,-41.57l-60.7 -111.06 118.87 -63.33c13.85,-7.32 19.09,-23.15 12.25,-35.09z"></path><path fill="#fbcdc2" fill-rule="nonzero" d="M10535.24 6747.23c78.22,4.06 153.39,6.98 222.32,-27.63 32.34,-16.31 62.43,-33.45 98.31,-35.78 36.96,-2.46 78.71,-18.74 116.54,-30.47 35.64,-11.14 77.29,-29.15 117.68,-18.36 48.24,12.94 3.3,58.13 -30.99,83.84 -37.2,28.15 -183.03,31.24 -194.41,79.33 -11.38,48 165.89,33.04 201.15,29.64 83.26,-8.33 109.7,-65.14 172.87,-107.03 36.85,-24.5 61.11,-24.33 59.13,26.69 -1.46,38.07 -37.69,64.17 -65,85.86 -55.6,44.18 -128.06,82.15 -199.8,93.63 56.92,-2.22 145.69,-39.43 195.28,-67.95 34.15,-19.71 165.16,-129.13 200.76,-78.12 71.74,102.48 -284.5,249.42 -354.78,244.87 70.63,-2.67 135.52,-29.98 201.01,-55.81 38.45,-15.06 127.71,-54.76 113.38,17.98 -21.17,107.27 -245.85,107.52 -346.25,125.49 68.96,10.27 124.04,-3.92 197.99,-12.11 87.53,-9.79 64.28,57.78 -23.63,83.36 -36.85,10.76 -113.97,19.85 -130.76,21.45 -177.37,16.62 -270.56,-16.42 -423.85,-92.94 -55.07,-27.45 -184.87,-19.71 -204.93,-68.92 -39.08,-95.4 45.05,-216.21 77.98,-297.04z"></path><path fill="#3fc0c6" fill-rule="nonzero" d="M10570.75 6688.38l43.69 505.96c0,0 -2174.33,174.87 -2423.48,16.07 -249.52,-158.91 -367.9,-417.01 -446.75,-649.01 -157.7,-463.65 -778.42,-1741.08 -219.02,-1935.71 175.43,-60.97 407.33,-59.65 524.59,169.53 262.26,512.13 543.23,1654.98 617.29,1703.64 103.7,68.06 1903.68,189.52 1903.68,189.52z"></path></svg>
